<?xml version="1.0" encoding="UTF-8"?>
<!DOCTYPE svg PUBLIC "-//W3C//DTD SVG 1.1//EN" "http://www.w3.org/Graphics/SVG/1.1/DTD/svg11.dtd">
<!-- Creator: CorelDRAW 2018 (64-Bit) -->
<svg xmlns="http://www.w3.org/2000/svg" xml:space="preserve" width="56.5216mm" height="13.4031mm" version="1.1" style="shape-rendering:geometricPrecision; text-rendering:geometricPrecision; image-rendering:optimizeQuality; fill-rule:evenodd; clip-rule:evenodd"
viewBox="0 0 1886.63 447.38"
 xmlns:xlink="http://www.w3.org/1999/xlink">
 <defs>
  <style type="text/css">
   <![CDATA[
    .fil0 {fill:none}
    .fil3 {fill:#008FD7}
    .fil11 {fill:#0091DA}
    .fil9 {fill:#0092DB}
    .fil4 {fill:#0092DC}
    .fil2 {fill:#0093DD}
    .fil10 {fill:#018FD6}
    .fil8 {fill:#1F1A17}
    .fil6 {fill:#201B18}
    .fil13 {fill:#6E6B69}
    .fil12 {fill:#999695}
    .fil7 {fill:#FEF400}
    .fil5 {fill:#FEFEFE}
    .fil1 {fill:#EEEEEF;fill-rule:nonzero}
   ]]>
  </style>
   <clipPath id="id0" style="clip-rule:nonzero">
    <path d="M578.6 205.36l-32.87 -60.17 36.45 -61.91 17.98 0 -26.39 44.65 42.66 77.43 -37.83 0zm-68.73 0l0 -122.08 34.21 0 0 122.08 -34.21 0z"/>
   </clipPath>
     <mask id="id1">
  <linearGradient id="id2" gradientUnits="userSpaceOnUse" x1="926.56" y1="-242.31" x2="1098.3" y2="275.18">
   <stop offset="0" style="stop-opacity:1; stop-color:white"/>
   <stop offset="1" style="stop-opacity:0; stop-color:white"/>
  </linearGradient>
      <rect style="fill:url(#id2)" x="18.21" y="-339.9" width="1820.7" height="843.95"/>
     </mask>
     <mask id="id3">
  <linearGradient id="id4" gradientUnits="userSpaceOnUse" x1="1343.02" y1="699.11" x2="1171.28" y2="181.63">
   <stop offset="0" style="stop-opacity:1; stop-color:white"/>
   <stop offset="1" style="stop-opacity:0; stop-color:white"/>
  </linearGradient>
      <rect style="fill:url(#id4)" x="430.67" y="-47.24" width="1820.7" height="843.95"/>
     </mask>
   <clipPath id="id5" style="clip-rule:nonzero">
    <path d="M623.16 205.36l0 -122.08 76.46 0 0 16.45 -42.25 0 0 35.52 40 0 0 16.45 -40 0 0 37.2 44.49 0 0 16.45 -78.7 0z"/>
   </clipPath>
     <mask id="id6">
  <linearGradient id="id7" gradientUnits="userSpaceOnUse" x1="926.56" y1="-242.31" x2="1098.3" y2="275.18">
   <stop offset="0" style="stop-opacity:1; stop-color:white"/>
   <stop offset="1" style="stop-opacity:0; stop-color:white"/>
  </linearGradient>
      <rect style="fill:url(#id7)" x="18.21" y="-339.9" width="1820.7" height="843.95"/>
     </mask>
     <mask id="id8">
  <linearGradient id="id9" gradientUnits="userSpaceOnUse" x1="1343.02" y1="699.11" x2="1171.28" y2="181.63">
   <stop offset="0" style="stop-opacity:1; stop-color:white"/>
   <stop offset="1" style="stop-opacity:0; stop-color:white"/>
  </linearGradient>
      <rect style="fill:url(#id9)" x="430.67" y="-47.24" width="1820.7" height="843.95"/>
     </mask>
   <clipPath id="id10" style="clip-rule:nonzero">
    <path d="M727.32 205.36l0 -122.08 34.21 0 0 105.62 44.3 0 0 16.45 -78.51 0z"/>
   </clipPath>
     <mask id="id11">
  <linearGradient id="id12" gradientUnits="userSpaceOnUse" x1="926.56" y1="-242.31" x2="1098.3" y2="275.18">
   <stop offset="0" style="stop-opacity:1; stop-color:white"/>
   <stop offset="1" style="stop-opacity:0; stop-color:white"/>
  </linearGradient>
      <rect style="fill:url(#id12)" x="18.21" y="-339.9" width="1820.7" height="843.95"/>
     </mask>
     <mask id="id13">
  <linearGradient id="id14" gradientUnits="userSpaceOnUse" x1="1343.02" y1="699.11" x2="1171.28" y2="181.63">
   <stop offset="0" style="stop-opacity:1; stop-color:white"/>
   <stop offset="1" style="stop-opacity:0; stop-color:white"/>
  </linearGradient>
      <rect style="fill:url(#id14)" x="430.67" y="-47.24" width="1820.7" height="843.95"/>
     </mask>
   <clipPath id="id15" style="clip-rule:nonzero">
    <path d="M825.09 205.36l0 -122.08 76.46 0 0 16.45 -42.25 0 0 35.52 40 0 0 16.45 -40 0 0 37.2 44.49 0 0 16.45 -78.7 0z"/>
   </clipPath>
     <mask id="id16">
  <linearGradient id="id17" gradientUnits="userSpaceOnUse" x1="926.56" y1="-242.31" x2="1098.3" y2="275.18">
   <stop offset="0" style="stop-opacity:1; stop-color:white"/>
   <stop offset="1" style="stop-opacity:0; stop-color:white"/>
  </linearGradient>
      <rect style="fill:url(#id17)" x="18.21" y="-339.9" width="1820.7" height="843.95"/>
     </mask>
     <mask id="id18">
  <linearGradient id="id19" gradientUnits="userSpaceOnUse" x1="1343.02" y1="699.11" x2="1171.28" y2="181.63">
   <stop offset="0" style="stop-opacity:1; stop-color:white"/>
   <stop offset="1" style="stop-opacity:0; stop-color:white"/>
  </linearGradient>
      <rect style="fill:url(#id19)" x="430.67" y="-47.24" width="1820.7" height="843.95"/>
     </mask>
   <clipPath id="id20" style="clip-rule:nonzero">
    <path d="M929.25 205.36l0 -122.08 32 0 27.45 65.84 27.29 -65.84 33.46 0 0 122.08 -34.02 0 0 -80.26 -32.94 80.26 -3.27 0 -32.22 -76.71 0 76.71 -17.76 0z"/>
   </clipPath>
     <mask id="id21">
  <linearGradient id="id22" gradientUnits="userSpaceOnUse" x1="926.56" y1="-242.31" x2="1098.3" y2="275.18">
   <stop offset="0" style="stop-opacity:1; stop-color:white"/>
   <stop offset="1" style="stop-opacity:0; stop-color:white"/>
  </linearGradient>
      <rect style="fill:url(#id22)" x="18.21" y="-339.9" width="1820.7" height="843.95"/>
     </mask>
     <mask id="id23">
  <linearGradient id="id24" gradientUnits="userSpaceOnUse" x1="1343.02" y1="699.11" x2="1171.28" y2="181.63">
   <stop offset="0" style="stop-opacity:1; stop-color:white"/>
   <stop offset="1" style="stop-opacity:0; stop-color:white"/>
  </linearGradient>
      <rect style="fill:url(#id24)" x="430.67" y="-47.24" width="1820.7" height="843.95"/>
     </mask>
   <clipPath id="id25" style="clip-rule:nonzero">
    <path d="M1112.24 150.22l0 40 8.04 0c8.97,0 15.33,-1.53 19.07,-4.61 3.74,-3.08 5.61,-8.26 5.61,-15.58 0,-6.76 -1.81,-11.75 -5.45,-14.99 -3.64,-3.21 -9.32,-4.83 -16.95,-4.83l-10.31 0zm0 -51.78l0 36.83 7.48 0c8.26,0 14.12,-1.4 17.51,-4.21 3.4,-2.8 5.11,-7.57 5.11,-14.33 0,-6.29 -1.68,-10.9 -5.02,-13.87 -3.33,-2.96 -8.5,-4.42 -15.52,-4.42l-9.56 0zm-33.28 106.93l0 -122.08 55.34 0c13.21,0 23.62,2.96 31.22,8.91 7.6,5.92 11.4,14.05 11.4,24.33 0,7.42 -2.15,13.43 -6.45,18.04 -4.27,4.58 -10.62,7.6 -19.04,9.07 9.56,2.43 16.89,6.27 21.96,11.47 5.08,5.2 7.63,11.5 7.63,18.85 0,10.22 -3.61,18.01 -10.81,23.37 -7.23,5.36 -17.7,8.04 -31.44,8.04l-59.82 0z"/>
   </clipPath>
     <mask id="id26">
  <linearGradient id="id27" gradientUnits="userSpaceOnUse" x1="926.56" y1="-242.31" x2="1098.3" y2="275.18">
   <stop offset="0" style="stop-opacity:1; stop-color:white"/>
   <stop offset="1" style="stop-opacity:0; stop-color:white"/>
  </linearGradient>
      <rect style="fill:url(#id27)" x="18.21" y="-339.9" width="1820.7" height="843.95"/>
     </mask>
     <mask id="id28">
  <linearGradient id="id29" gradientUnits="userSpaceOnUse" x1="1343.02" y1="699.11" x2="1171.28" y2="181.63">
   <stop offset="0" style="stop-opacity:1; stop-color:white"/>
   <stop offset="1" style="stop-opacity:0; stop-color:white"/>
  </linearGradient>
      <rect style="fill:url(#id29)" x="430.67" y="-47.24" width="1820.7" height="843.95"/>
     </mask>
   <clipPath id="id30" style="clip-rule:nonzero">
    <path d="M1220.82 153.77l30.13 0 -15.8 -43.75 -14.33 43.75zm-34.77 51.6l41.91 -122.08 33.03 0 44.71 122.08 -36.33 0 -12.87 -36.08 -40.97 0 -12.12 36.08 -17.35 0z"/>
   </clipPath>
     <mask id="id31">
  <linearGradient id="id32" gradientUnits="userSpaceOnUse" x1="926.56" y1="-242.31" x2="1098.3" y2="275.18">
   <stop offset="0" style="stop-opacity:1; stop-color:white"/>
   <stop offset="1" style="stop-opacity:0; stop-color:white"/>
  </linearGradient>
      <rect style="fill:url(#id32)" x="18.21" y="-339.9" width="1820.7" height="843.95"/>
     </mask>
     <mask id="id33">
  <linearGradient id="id34" gradientUnits="userSpaceOnUse" x1="1343.02" y1="699.11" x2="1171.28" y2="181.63">
   <stop offset="0" style="stop-opacity:1; stop-color:white"/>
   <stop offset="1" style="stop-opacity:0; stop-color:white"/>
  </linearGradient>
      <rect style="fill:url(#id34)" x="430.67" y="-47.24" width="1820.7" height="843.95"/>
     </mask>
   <clipPath id="id35" style="clip-rule:nonzero">
    <path d="M1437.65 186.08c-8.35,7.23 -17.63,12.77 -27.85,16.58 -10.22,3.8 -20.94,5.7 -32.12,5.7 -8.6,0 -16.51,-1.21 -23.74,-3.61 -7.26,-2.4 -13.74,-5.95 -19.44,-10.62 -7.69,-6.26 -13.39,-13.55 -17.17,-21.81 -3.77,-8.29 -5.67,-17.7 -5.67,-28.29 0,-9.13 1.9,-17.91 5.7,-26.33 3.8,-8.44 9.13,-15.61 15.96,-21.5 5.95,-5.11 12.71,-8.97 20.25,-11.59 7.57,-2.62 15.7,-3.93 24.49,-3.93 11.19,0 20.94,2.24 29.26,6.7 8.32,4.49 15.52,11.41 21.59,20.78l-15.48 11.41c-3.71,-7.91 -8.26,-13.87 -13.62,-17.82 -5.36,-3.96 -11.47,-5.92 -18.35,-5.92 -10.53,0 -18.7,4.24 -24.49,12.74 -5.76,8.47 -8.66,20.47 -8.66,35.99 0,14.12 3.27,25.58 9.78,34.37 6.51,8.79 14.95,13.18 25.39,13.18 3.9,0 7.54,-0.59 10.94,-1.78 3.42,-1.18 6.73,-2.96 9.97,-5.33l0 -34.02 33.28 0 0 35.11z"/>
   </clipPath>
     <mask id="id36">
  <linearGradient id="id37" gradientUnits="userSpaceOnUse" x1="926.56" y1="-242.31" x2="1098.3" y2="275.18">
   <stop offset="0" style="stop-opacity:1; stop-color:white"/>
   <stop offset="1" style="stop-opacity:0; stop-color:white"/>
  </linearGradient>
      <rect style="fill:url(#id37)" x="18.21" y="-339.9" width="1820.7" height="843.95"/>
     </mask>
     <mask id="id38">
  <linearGradient id="id39" gradientUnits="userSpaceOnUse" x1="1343.02" y1="699.11" x2="1171.28" y2="181.63">
   <stop offset="0" style="stop-opacity:1; stop-color:white"/>
   <stop offset="1" style="stop-opacity:0; stop-color:white"/>
  </linearGradient>
      <rect style="fill:url(#id39)" x="430.67" y="-47.24" width="1820.7" height="843.95"/>
     </mask>
   <clipPath id="id40" style="clip-rule:nonzero">
    <path d="M1476.69 153.77l30.13 0 -15.8 -43.75 -14.33 43.75zm-34.77 51.6l41.91 -122.08 33.03 0 44.71 122.08 -36.33 0 -12.87 -36.08 -40.97 0 -12.12 36.08 -17.35 0z"/>
   </clipPath>
     <mask id="id41">
  <linearGradient id="id42" gradientUnits="userSpaceOnUse" x1="926.56" y1="-242.31" x2="1098.3" y2="275.18">
   <stop offset="0" style="stop-opacity:1; stop-color:white"/>
   <stop offset="1" style="stop-opacity:0; stop-color:white"/>
  </linearGradient>
      <rect style="fill:url(#id42)" x="18.21" y="-339.9" width="1820.7" height="843.95"/>
     </mask>
     <mask id="id43">
  <linearGradient id="id44" gradientUnits="userSpaceOnUse" x1="1343.02" y1="699.11" x2="1171.28" y2="181.63">
   <stop offset="0" style="stop-opacity:1; stop-color:white"/>
   <stop offset="1" style="stop-opacity:0; stop-color:white"/>
  </linearGradient>
      <rect style="fill:url(#id44)" x="430.67" y="-47.24" width="1820.7" height="843.95"/>
     </mask>
   <clipPath id="id45" style="clip-rule:nonzero">
    <path d="M1595.18 153.77l30.13 0 -15.8 -43.75 -14.33 43.75zm-34.77 51.6l41.91 -122.08 33.03 0 44.71 122.08 -36.33 0 -12.87 -36.08 -40.97 0 -12.12 36.08 -17.35 0z"/>
   </clipPath>
     <mask id="id46">
  <linearGradient id="id47" gradientUnits="userSpaceOnUse" x1="926.56" y1="-242.31" x2="1098.3" y2="275.18">
   <stop offset="0" style="stop-opacity:1; stop-color:white"/>
   <stop offset="1" style="stop-opacity:0; stop-color:white"/>
  </linearGradient>
      <rect style="fill:url(#id47)" x="18.21" y="-339.9" width="1820.7" height="843.95"/>
     </mask>
     <mask id="id48">
  <linearGradient id="id49" gradientUnits="userSpaceOnUse" x1="1343.02" y1="699.11" x2="1171.28" y2="181.63">
   <stop offset="0" style="stop-opacity:1; stop-color:white"/>
   <stop offset="1" style="stop-opacity:0; stop-color:white"/>
  </linearGradient>
      <rect style="fill:url(#id49)" x="430.67" y="-47.24" width="1820.7" height="843.95"/>
     </mask>
   <clipPath id="id50" style="clip-rule:nonzero">
    <path d="M1694.23 205.36l0 -122.08 37.57 0 40.38 62.44 0 -62.44 18.32 0 0 122.08 -19.88 0 -58.27 -89.21 0 89.21 -18.13 0z"/>
   </clipPath>
     <mask id="id51">
  <linearGradient id="id52" gradientUnits="userSpaceOnUse" x1="926.56" y1="-242.31" x2="1098.3" y2="275.18">
   <stop offset="0" style="stop-opacity:1; stop-color:white"/>
   <stop offset="1" style="stop-opacity:0; stop-color:white"/>
  </linearGradient>
      <rect style="fill:url(#id52)" x="18.21" y="-339.9" width="1820.7" height="843.95"/>
     </mask>
     <mask id="id53">
  <linearGradient id="id54" gradientUnits="userSpaceOnUse" x1="1343.02" y1="699.11" x2="1171.28" y2="181.63">
   <stop offset="0" style="stop-opacity:1; stop-color:white"/>
   <stop offset="1" style="stop-opacity:0; stop-color:white"/>
  </linearGradient>
      <rect style="fill:url(#id54)" x="430.67" y="-47.24" width="1820.7" height="843.95"/>
     </mask>
   <clipPath id="id55" style="clip-rule:nonzero">
    <path d="M509.87 377.57l0 -122.08 34.21 0 0 105.62 44.3 0 0 16.45 -78.51 0z"/>
   </clipPath>
     <mask id="id56">
  <linearGradient id="id57" gradientUnits="userSpaceOnUse" x1="926.56" y1="-242.31" x2="1098.3" y2="275.18">
   <stop offset="0" style="stop-opacity:1; stop-color:white"/>
   <stop offset="1" style="stop-opacity:0; stop-color:white"/>
  </linearGradient>
      <rect style="fill:url(#id57)" x="18.21" y="-339.9" width="1820.7" height="843.95"/>
     </mask>
     <mask id="id58">
  <linearGradient id="id59" gradientUnits="userSpaceOnUse" x1="1343.02" y1="699.11" x2="1171.28" y2="181.63">
   <stop offset="0" style="stop-opacity:1; stop-color:white"/>
   <stop offset="1" style="stop-opacity:0; stop-color:white"/>
  </linearGradient>
      <rect style="fill:url(#id59)" x="430.67" y="-47.24" width="1820.7" height="843.95"/>
     </mask>
   <clipPath id="id60" style="clip-rule:nonzero">
    <path d="M607.64 377.57l0 -122.08 34.21 0 0 105.62 44.3 0 0 16.45 -78.51 0z"/>
   </clipPath>
     <mask id="id61">
  <linearGradient id="id62" gradientUnits="userSpaceOnUse" x1="926.56" y1="-242.31" x2="1098.3" y2="275.18">
   <stop offset="0" style="stop-opacity:1; stop-color:white"/>
   <stop offset="1" style="stop-opacity:0; stop-color:white"/>
  </linearGradient>
      <rect style="fill:url(#id62)" x="18.21" y="-339.9" width="1820.7" height="843.95"/>
     </mask>
     <mask id="id63">
  <linearGradient id="id64" gradientUnits="userSpaceOnUse" x1="1343.02" y1="699.11" x2="1171.28" y2="181.63">
   <stop offset="0" style="stop-opacity:1; stop-color:white"/>
   <stop offset="1" style="stop-opacity:0; stop-color:white"/>
  </linearGradient>
      <rect style="fill:url(#id64)" x="430.67" y="-47.24" width="1820.7" height="843.95"/>
     </mask>
   <clipPath id="id65" style="clip-rule:nonzero">
    <path d="M739.63 271.95l0 89.17 11.78 0c11.25,0 19.97,-3.86 26.11,-11.59 6.14,-7.73 9.22,-18.73 9.22,-32.97 0,-14.24 -3.09,-25.24 -9.26,-33 -6.2,-7.76 -14.89,-11.62 -26.08,-11.62l-11.78 0zm-34.21 105.62l0 -122.08 41.25 0c12.06,0 21.78,0.87 29.17,2.62 7.41,1.71 14.08,4.61 20.06,8.6 8.69,5.79 15.48,13.08 20.34,21.93 4.89,8.82 7.32,18.2 7.32,28.11 0,9.5 -1.87,18.35 -5.61,26.55 -3.77,8.16 -9.16,15.24 -16.24,21.22 -5.11,4.21 -11.12,7.41 -18.07,9.69 -6.95,2.24 -14.39,3.36 -22.37,3.36l-55.86 0z"/>
   </clipPath>
     <mask id="id66">
  <linearGradient id="id67" gradientUnits="userSpaceOnUse" x1="926.56" y1="-242.31" x2="1098.3" y2="275.18">
   <stop offset="0" style="stop-opacity:1; stop-color:white"/>
   <stop offset="1" style="stop-opacity:0; stop-color:white"/>
  </linearGradient>
      <rect style="fill:url(#id67)" x="18.21" y="-339.9" width="1820.7" height="843.95"/>
     </mask>
     <mask id="id68">
  <linearGradient id="id69" gradientUnits="userSpaceOnUse" x1="1343.02" y1="699.11" x2="1171.28" y2="181.63">
   <stop offset="0" style="stop-opacity:1; stop-color:white"/>
   <stop offset="1" style="stop-opacity:0; stop-color:white"/>
  </linearGradient>
      <rect style="fill:url(#id69)" x="430.67" y="-47.24" width="1820.7" height="843.95"/>
     </mask>
   <clipPath id="id70" style="clip-rule:nonzero">
    <path d="M879.31 377.57l-34.21 0 0 -122.08 34.21 0 0 122.08z"/>
   </clipPath>
     <mask id="id71">
  <linearGradient id="id72" gradientUnits="userSpaceOnUse" x1="926.56" y1="-242.31" x2="1098.3" y2="275.18">
   <stop offset="0" style="stop-opacity:1; stop-color:white"/>
   <stop offset="1" style="stop-opacity:0; stop-color:white"/>
  </linearGradient>
      <rect style="fill:url(#id72)" x="18.21" y="-339.9" width="1820.7" height="843.95"/>
     </mask>
     <mask id="id73">
  <linearGradient id="id74" gradientUnits="userSpaceOnUse" x1="1343.02" y1="699.11" x2="1171.28" y2="181.63">
   <stop offset="0" style="stop-opacity:1; stop-color:white"/>
   <stop offset="1" style="stop-opacity:0; stop-color:white"/>
  </linearGradient>
      <rect style="fill:url(#id74)" x="430.67" y="-47.24" width="1820.7" height="843.95"/>
     </mask>
   <clipPath id="id75" style="clip-rule:nonzero">
    <path d="M977.98 377.57l-32.87 -60.17 36.45 -61.91 17.98 0 -26.39 44.65 42.66 77.43 -37.83 0zm-68.73 0l0 -122.08 34.21 0 0 122.08 -34.21 0z"/>
   </clipPath>
     <mask id="id76">
  <linearGradient id="id77" gradientUnits="userSpaceOnUse" x1="926.56" y1="-242.31" x2="1098.3" y2="275.18">
   <stop offset="0" style="stop-opacity:1; stop-color:white"/>
   <stop offset="1" style="stop-opacity:0; stop-color:white"/>
  </linearGradient>
      <rect style="fill:url(#id77)" x="18.21" y="-339.9" width="1820.7" height="843.95"/>
     </mask>
     <mask id="id78">
  <linearGradient id="id79" gradientUnits="userSpaceOnUse" x1="1343.02" y1="699.11" x2="1171.28" y2="181.63">
   <stop offset="0" style="stop-opacity:1; stop-color:white"/>
   <stop offset="1" style="stop-opacity:0; stop-color:white"/>
  </linearGradient>
      <rect style="fill:url(#id79)" x="430.67" y="-47.24" width="1820.7" height="843.95"/>
     </mask>
   <clipPath id="id80" style="clip-rule:nonzero">
    <path d="M1041.98 377.57l0 -105.62 -32.53 0 0 -16.45 99.27 0 0 16.45 -32.53 0 0 105.62 -34.21 0z"/>
   </clipPath>
     <mask id="id81">
  <linearGradient id="id82" gradientUnits="userSpaceOnUse" x1="926.56" y1="-242.31" x2="1098.3" y2="275.18">
   <stop offset="0" style="stop-opacity:1; stop-color:white"/>
   <stop offset="1" style="stop-opacity:0; stop-color:white"/>
  </linearGradient>
      <rect style="fill:url(#id82)" x="18.21" y="-339.9" width="1820.7" height="843.95"/>
     </mask>
     <mask id="id83">
  <linearGradient id="id84" gradientUnits="userSpaceOnUse" x1="1343.02" y1="699.11" x2="1171.28" y2="181.63">
   <stop offset="0" style="stop-opacity:1; stop-color:white"/>
   <stop offset="1" style="stop-opacity:0; stop-color:white"/>
  </linearGradient>
      <rect style="fill:url(#id84)" x="430.67" y="-47.24" width="1820.7" height="843.95"/>
     </mask>
   <clipPath id="id85" style="clip-rule:nonzero">
    <path d="M1159.73 377.57l-34.21 0 0 -122.08 34.21 0 0 122.08z"/>
   </clipPath>
     <mask id="id86">
  <linearGradient id="id87" gradientUnits="userSpaceOnUse" x1="926.56" y1="-242.31" x2="1098.3" y2="275.18">
   <stop offset="0" style="stop-opacity:1; stop-color:white"/>
   <stop offset="1" style="stop-opacity:0; stop-color:white"/>
  </linearGradient>
      <rect style="fill:url(#id87)" x="18.21" y="-339.9" width="1820.7" height="843.95"/>
     </mask>
     <mask id="id88">
  <linearGradient id="id89" gradientUnits="userSpaceOnUse" x1="1343.02" y1="699.11" x2="1171.28" y2="181.63">
   <stop offset="0" style="stop-opacity:1; stop-color:white"/>
   <stop offset="1" style="stop-opacity:0; stop-color:white"/>
  </linearGradient>
      <rect style="fill:url(#id89)" x="430.67" y="-47.24" width="1820.7" height="843.95"/>
     </mask>
   <clipPath id="id90" style="clip-rule:nonzero">
    <path d="M1280.68 380.56l-50.26 -125.07 35.55 0 24.83 66.02 25.64 -66.02 16.05 0 -51.82 125.07z"/>
   </clipPath>
     <mask id="id91">
  <linearGradient id="id92" gradientUnits="userSpaceOnUse" x1="926.56" y1="-242.31" x2="1098.3" y2="275.18">
   <stop offset="0" style="stop-opacity:1; stop-color:white"/>
   <stop offset="1" style="stop-opacity:0; stop-color:white"/>
  </linearGradient>
      <rect style="fill:url(#id92)" x="18.21" y="-339.9" width="1820.7" height="843.95"/>
     </mask>
     <mask id="id93">
  <linearGradient id="id94" gradientUnits="userSpaceOnUse" x1="1343.02" y1="699.11" x2="1171.28" y2="181.63">
   <stop offset="0" style="stop-opacity:1; stop-color:white"/>
   <stop offset="1" style="stop-opacity:0; stop-color:white"/>
  </linearGradient>
      <rect style="fill:url(#id94)" x="430.67" y="-47.24" width="1820.7" height="843.95"/>
     </mask>
   <clipPath id="id95" style="clip-rule:nonzero">
    <path d="M1379.05 377.57l-34.21 0 0 -122.08 34.21 0 0 122.08z"/>
   </clipPath>
     <mask id="id96">
  <linearGradient id="id97" gradientUnits="userSpaceOnUse" x1="926.56" y1="-242.31" x2="1098.3" y2="275.18">
   <stop offset="0" style="stop-opacity:1; stop-color:white"/>
   <stop offset="1" style="stop-opacity:0; stop-color:white"/>
  </linearGradient>
      <rect style="fill:url(#id97)" x="18.21" y="-339.9" width="1820.7" height="843.95"/>
     </mask>
     <mask id="id98">
  <linearGradient id="id99" gradientUnits="userSpaceOnUse" x1="1343.02" y1="699.11" x2="1171.28" y2="181.63">
   <stop offset="0" style="stop-opacity:1; stop-color:white"/>
   <stop offset="1" style="stop-opacity:0; stop-color:white"/>
  </linearGradient>
      <rect style="fill:url(#id99)" x="430.67" y="-47.24" width="1820.7" height="843.95"/>
     </mask>
   <clipPath id="id100" style="clip-rule:nonzero">
    <path d="M1443.58 377.57l-34.21 0 0 -122.08 34.21 0 0 122.08z"/>
   </clipPath>
     <mask id="id101">
  <linearGradient id="id102" gradientUnits="userSpaceOnUse" x1="926.56" y1="-242.31" x2="1098.3" y2="275.18">
   <stop offset="0" style="stop-opacity:1; stop-color:white"/>
   <stop offset="1" style="stop-opacity:0; stop-color:white"/>
  </linearGradient>
      <rect style="fill:url(#id102)" x="18.21" y="-339.9" width="1820.7" height="843.95"/>
     </mask>
     <mask id="id103">
  <linearGradient id="id104" gradientUnits="userSpaceOnUse" x1="1343.02" y1="699.11" x2="1171.28" y2="181.63">
   <stop offset="0" style="stop-opacity:1; stop-color:white"/>
   <stop offset="1" style="stop-opacity:0; stop-color:white"/>
  </linearGradient>
      <rect style="fill:url(#id104)" x="430.67" y="-47.24" width="1820.7" height="843.95"/>
     </mask>
   <clipPath id="id105" style="clip-rule:nonzero">
    <path d="M1508.11 377.57l-34.21 0 0 -122.08 34.21 0 0 122.08z"/>
   </clipPath>
     <mask id="id106">
  <linearGradient id="id107" gradientUnits="userSpaceOnUse" x1="926.56" y1="-242.31" x2="1098.3" y2="275.18">
   <stop offset="0" style="stop-opacity:1; stop-color:white"/>
   <stop offset="1" style="stop-opacity:0; stop-color:white"/>
  </linearGradient>
      <rect style="fill:url(#id107)" x="18.21" y="-339.9" width="1820.7" height="843.95"/>
     </mask>
     <mask id="id108">
  <linearGradient id="id109" gradientUnits="userSpaceOnUse" x1="1343.02" y1="699.11" x2="1171.28" y2="181.63">
   <stop offset="0" style="stop-opacity:1; stop-color:white"/>
   <stop offset="1" style="stop-opacity:0; stop-color:white"/>
  </linearGradient>
      <rect style="fill:url(#id109)" x="430.67" y="-47.24" width="1820.7" height="843.95"/>
     </mask>
   <clipPath id="id110">
    <rect x="66.41" y="50.61" width="345.79" height="346.15"/>
   </clipPath>
 </defs>
 <g id="Layer_x0020_1">
  <metadata id="CorelCorpID_0Corel-Layer"/>
  <rect class="fil0" x="0" y="-0" width="1886.63" height="447.38"/>
  <path class="fil1" d="M578.6 205.36l-32.87 -60.17 36.45 -61.91 17.98 0 -26.39 44.65 42.66 77.43 -37.83 0zm-68.73 0l0 -122.08 34.21 0 0 122.08 -34.21 0zm113.29 0l0 -122.08 76.46 0 0 16.45 -42.25 0 0 35.52 40 0 0 16.45 -40 0 0 37.2 44.49 0 0 16.45 -78.7 0zm104.16 0l0 -122.08 34.21 0 0 105.62 44.3 0 0 16.45 -78.51 0zm97.77 0l0 -122.08 76.46 0 0 16.45 -42.25 0 0 35.52 40 0 0 16.45 -40 0 0 37.2 44.49 0 0 16.45 -78.7 0zm104.16 0l0 -122.08 32 0 27.45 65.84 27.29 -65.84 33.46 0 0 122.08 -34.02 0 0 -80.26 -32.94 80.26 -3.27 0 -32.22 -76.71 0 76.71 -17.76 0zm182.99 -55.15l0 40 8.04 0c8.97,0 15.33,-1.53 19.07,-4.61 3.74,-3.08 5.61,-8.26 5.61,-15.58 0,-6.76 -1.81,-11.75 -5.45,-14.99 -3.64,-3.21 -9.32,-4.83 -16.95,-4.83l-10.31 0zm0 -51.78l0 36.83 7.48 0c8.26,0 14.12,-1.4 17.51,-4.21 3.4,-2.8 5.11,-7.57 5.11,-14.33 0,-6.29 -1.68,-10.9 -5.02,-13.87 -3.33,-2.96 -8.5,-4.42 -15.52,-4.42l-9.56 0zm-33.28 106.93l0 -122.08 55.34 0c13.21,0 23.62,2.96 31.22,8.91 7.6,5.92 11.4,14.05 11.4,24.33 0,7.42 -2.15,13.43 -6.45,18.04 -4.27,4.58 -10.62,7.6 -19.04,9.07 9.56,2.43 16.89,6.27 21.96,11.47 5.08,5.2 7.63,11.5 7.63,18.85 0,10.22 -3.61,18.01 -10.81,23.37 -7.23,5.36 -17.7,8.04 -31.44,8.04l-59.82 0zm141.86 -51.6l30.13 0 -15.8 -43.75 -14.33 43.75zm-34.77 51.6l41.91 -122.08 33.03 0 44.71 122.08 -36.33 0 -12.87 -36.08 -40.97 0 -12.12 36.08 -17.35 0zm251.6 -19.29c-8.35,7.23 -17.63,12.77 -27.85,16.58 -10.22,3.8 -20.94,5.7 -32.12,5.7 -8.6,0 -16.51,-1.21 -23.74,-3.61 -7.26,-2.4 -13.74,-5.95 -19.44,-10.62 -7.69,-6.26 -13.39,-13.55 -17.17,-21.81 -3.77,-8.29 -5.67,-17.7 -5.67,-28.29 0,-9.13 1.9,-17.91 5.7,-26.33 3.8,-8.44 9.13,-15.61 15.96,-21.5 5.95,-5.11 12.71,-8.97 20.25,-11.59 7.57,-2.62 15.7,-3.93 24.49,-3.93 11.19,0 20.94,2.24 29.26,6.7 8.32,4.49 15.52,11.41 21.59,20.78l-15.48 11.41c-3.71,-7.91 -8.26,-13.87 -13.62,-17.82 -5.36,-3.96 -11.47,-5.92 -18.35,-5.92 -10.53,0 -18.7,4.24 -24.49,12.74 -5.76,8.47 -8.66,20.47 -8.66,35.99 0,14.12 3.27,25.58 9.78,34.37 6.51,8.79 14.95,13.18 25.39,13.18 3.9,0 7.54,-0.59 10.94,-1.78 3.42,-1.18 6.73,-2.96 9.97,-5.33l0 -34.02 33.28 0 0 35.11zm39.04 -32.31l30.13 0 -15.8 -43.75 -14.33 43.75zm-34.77 51.6l41.91 -122.08 33.03 0 44.71 122.08 -36.33 0 -12.87 -36.08 -40.97 0 -12.12 36.08 -17.35 0zm153.26 -51.6l30.13 0 -15.8 -43.75 -14.33 43.75zm-34.77 51.6l41.91 -122.08 33.03 0 44.71 122.08 -36.33 0 -12.87 -36.08 -40.97 0 -12.12 36.08 -17.35 0zm133.82 0l0 -122.08 37.57 0 40.38 62.44 0 -62.44 18.32 0 0 122.08 -19.88 0 -58.27 -89.21 0 89.21 -18.13 0zm-1184.36 172.21l0 -122.08 34.21 0 0 105.62 44.3 0 0 16.45 -78.51 0zm97.77 0l0 -122.08 34.21 0 0 105.62 44.3 0 0 16.45 -78.51 0zm131.98 -105.62l0 89.17 11.78 0c11.25,0 19.97,-3.86 26.11,-11.59 6.14,-7.73 9.22,-18.73 9.22,-32.97 0,-14.24 -3.09,-25.24 -9.26,-33 -6.2,-7.76 -14.89,-11.62 -26.08,-11.62l-11.78 0zm-34.21 105.62l0 -122.08 41.25 0c12.06,0 21.78,0.87 29.17,2.62 7.41,1.71 14.08,4.61 20.06,8.6 8.69,5.79 15.48,13.08 20.34,21.93 4.89,8.82 7.32,18.2 7.32,28.11 0,9.5 -1.87,18.35 -5.61,26.55 -3.77,8.16 -9.16,15.24 -16.24,21.22 -5.11,4.21 -11.12,7.41 -18.07,9.69 -6.95,2.24 -14.39,3.36 -22.37,3.36l-55.86 0zm173.89 0l-34.21 0 0 -122.08 34.21 0 0 122.08zm98.68 0l-32.87 -60.17 36.45 -61.91 17.98 0 -26.39 44.65 42.66 77.43 -37.83 0zm-68.73 0l0 -122.08 34.21 0 0 122.08 -34.21 0zm132.73 0l0 -105.62 -32.53 0 0 -16.45 99.27 0 0 16.45 -32.53 0 0 105.62 -34.21 0zm117.75 0l-34.21 0 0 -122.08 34.21 0 0 122.08zm120.95 2.99l-50.26 -125.07 35.55 0 24.83 66.02 25.64 -66.02 16.05 0 -51.82 125.07zm98.37 -2.99l-34.21 0 0 -122.08 34.21 0 0 122.08zm64.53 0l-34.21 0 0 -122.08 34.21 0 0 122.08zm64.53 0l-34.21 0 0 -122.08 34.21 0 0 122.08z"/>
  <g style="clip-path:url(#id0)">
   <g id="_2583495382368">
    <polygon id="1" class="fil2" style="mask:url(#id1)" points="18.3,153.24 1738.29,-339.82 1838.83,10.91 118.83,503.97 "/>
    <polygon class="fil3" style="mask:url(#id3)" points="2251.29,303.57 531.29,796.62 430.76,445.9 2150.75,-47.16 "/>
   </g>
  </g>
  <g style="clip-path:url(#id5)">
   <g id="_2583495382368">
    <polygon class="fil2" style="mask:url(#id6)" points="18.3,153.24 1738.29,-339.82 1838.83,10.91 118.83,503.97 "/>
    <polygon class="fil3" style="mask:url(#id8)" points="2251.29,303.57 531.29,796.62 430.76,445.9 2150.75,-47.16 "/>
   </g>
  </g>
  <g style="clip-path:url(#id10)">
   <g id="_2583495382368">
    <polygon class="fil2" style="mask:url(#id11)" points="18.3,153.24 1738.29,-339.82 1838.83,10.91 118.83,503.97 "/>
    <polygon class="fil3" style="mask:url(#id13)" points="2251.29,303.57 531.29,796.62 430.76,445.9 2150.75,-47.16 "/>
   </g>
  </g>
  <g style="clip-path:url(#id15)">
   <g id="_2583495382368">
    <polygon class="fil2" style="mask:url(#id16)" points="18.3,153.24 1738.29,-339.82 1838.83,10.91 118.83,503.97 "/>
    <polygon class="fil3" style="mask:url(#id18)" points="2251.29,303.57 531.29,796.62 430.76,445.9 2150.75,-47.16 "/>
   </g>
  </g>
  <g style="clip-path:url(#id20)">
   <g id="_2583495382368">
    <polygon class="fil2" style="mask:url(#id21)" points="18.3,153.24 1738.29,-339.82 1838.83,10.91 118.83,503.97 "/>
    <polygon class="fil3" style="mask:url(#id23)" points="2251.29,303.57 531.29,796.62 430.76,445.9 2150.75,-47.16 "/>
   </g>
  </g>
  <g style="clip-path:url(#id25)">
   <g id="_2583495382368">
    <polygon class="fil2" style="mask:url(#id26)" points="18.3,153.24 1738.29,-339.82 1838.83,10.91 118.83,503.97 "/>
    <polygon class="fil3" style="mask:url(#id28)" points="2251.29,303.57 531.29,796.62 430.76,445.9 2150.75,-47.16 "/>
   </g>
  </g>
  <g style="clip-path:url(#id30)">
   <g id="_2583495382368">
    <polygon class="fil2" style="mask:url(#id31)" points="18.3,153.24 1738.29,-339.82 1838.83,10.91 118.83,503.97 "/>
    <polygon class="fil3" style="mask:url(#id33)" points="2251.29,303.57 531.29,796.62 430.76,445.9 2150.75,-47.16 "/>
   </g>
  </g>
  <g style="clip-path:url(#id35)">
   <g id="_2583495382368">
    <polygon class="fil2" style="mask:url(#id36)" points="18.3,153.24 1738.29,-339.82 1838.83,10.91 118.83,503.97 "/>
    <polygon class="fil3" style="mask:url(#id38)" points="2251.29,303.57 531.29,796.62 430.76,445.9 2150.75,-47.16 "/>
   </g>
  </g>
  <g style="clip-path:url(#id40)">
   <g id="_2583495382368">
    <polygon class="fil2" style="mask:url(#id41)" points="18.3,153.24 1738.29,-339.82 1838.83,10.91 118.83,503.97 "/>
    <polygon class="fil3" style="mask:url(#id43)" points="2251.29,303.57 531.29,796.62 430.76,445.9 2150.75,-47.16 "/>
   </g>
  </g>
  <g style="clip-path:url(#id45)">
   <g id="_2583495382368">
    <polygon class="fil2" style="mask:url(#id46)" points="18.3,153.24 1738.29,-339.82 1838.83,10.91 118.83,503.97 "/>
    <polygon class="fil3" style="mask:url(#id48)" points="2251.29,303.57 531.29,796.62 430.76,445.9 2150.75,-47.16 "/>
   </g>
  </g>
  <g style="clip-path:url(#id50)">
   <g id="_2583495382368">
    <polygon class="fil2" style="mask:url(#id51)" points="18.3,153.24 1738.29,-339.82 1838.83,10.91 118.83,503.97 "/>
    <polygon class="fil3" style="mask:url(#id53)" points="2251.29,303.57 531.29,796.62 430.76,445.9 2150.75,-47.16 "/>
   </g>
  </g>
  <g style="clip-path:url(#id55)">
   <g id="_2583495382368">
    <polygon class="fil2" style="mask:url(#id56)" points="18.3,153.24 1738.29,-339.82 1838.83,10.91 118.83,503.97 "/>
    <polygon class="fil3" style="mask:url(#id58)" points="2251.29,303.57 531.29,796.62 430.76,445.9 2150.75,-47.16 "/>
   </g>
  </g>
  <g style="clip-path:url(#id60)">
   <g id="_2583495382368">
    <polygon class="fil2" style="mask:url(#id61)" points="18.3,153.24 1738.29,-339.82 1838.83,10.91 118.83,503.97 "/>
    <polygon class="fil3" style="mask:url(#id63)" points="2251.29,303.57 531.29,796.62 430.76,445.9 2150.75,-47.16 "/>
   </g>
  </g>
  <g style="clip-path:url(#id65)">
   <g id="_2583495382368">
    <polygon class="fil2" style="mask:url(#id66)" points="18.3,153.24 1738.29,-339.82 1838.83,10.91 118.83,503.97 "/>
    <polygon class="fil3" style="mask:url(#id68)" points="2251.29,303.57 531.29,796.62 430.76,445.9 2150.75,-47.16 "/>
   </g>
  </g>
  <g style="clip-path:url(#id70)">
   <g id="_2583495382368">
    <polygon class="fil2" style="mask:url(#id71)" points="18.3,153.24 1738.29,-339.82 1838.83,10.91 118.83,503.97 "/>
    <polygon class="fil3" style="mask:url(#id73)" points="2251.29,303.57 531.29,796.62 430.76,445.9 2150.75,-47.16 "/>
   </g>
  </g>
  <g style="clip-path:url(#id75)">
   <g id="_2583495382368">
    <polygon class="fil2" style="mask:url(#id76)" points="18.3,153.24 1738.29,-339.82 1838.83,10.91 118.83,503.97 "/>
    <polygon class="fil3" style="mask:url(#id78)" points="2251.29,303.57 531.29,796.62 430.76,445.9 2150.75,-47.16 "/>
   </g>
  </g>
  <g style="clip-path:url(#id80)">
   <g id="_2583495382368">
    <polygon class="fil2" style="mask:url(#id81)" points="18.3,153.24 1738.29,-339.82 1838.83,10.91 118.83,503.97 "/>
    <polygon class="fil3" style="mask:url(#id83)" points="2251.29,303.57 531.29,796.62 430.76,445.9 2150.75,-47.16 "/>
   </g>
  </g>
  <g style="clip-path:url(#id85)">
   <g id="_2583495382368">
    <polygon class="fil2" style="mask:url(#id86)" points="18.3,153.24 1738.29,-339.82 1838.83,10.91 118.83,503.97 "/>
    <polygon class="fil3" style="mask:url(#id88)" points="2251.29,303.57 531.29,796.62 430.76,445.9 2150.75,-47.16 "/>
   </g>
  </g>
  <g style="clip-path:url(#id90)">
   <g id="_2583495382368">
    <polygon class="fil2" style="mask:url(#id91)" points="18.3,153.24 1738.29,-339.82 1838.83,10.91 118.83,503.97 "/>
    <polygon class="fil3" style="mask:url(#id93)" points="2251.29,303.57 531.29,796.62 430.76,445.9 2150.75,-47.16 "/>
   </g>
  </g>
  <g style="clip-path:url(#id95)">
   <g id="_2583495382368">
    <polygon class="fil2" style="mask:url(#id96)" points="18.3,153.24 1738.29,-339.82 1838.83,10.91 118.83,503.97 "/>
    <polygon class="fil3" style="mask:url(#id98)" points="2251.29,303.57 531.29,796.62 430.76,445.9 2150.75,-47.16 "/>
   </g>
  </g>
  <g style="clip-path:url(#id100)">
   <g id="_2583495382368">
    <polygon class="fil2" style="mask:url(#id101)" points="18.3,153.24 1738.29,-339.82 1838.83,10.91 118.83,503.97 "/>
    <polygon class="fil3" style="mask:url(#id103)" points="2251.29,303.57 531.29,796.62 430.76,445.9 2150.75,-47.16 "/>
   </g>
  </g>
  <g style="clip-path:url(#id105)">
   <g id="_2583495382368">
    <polygon class="fil2" style="mask:url(#id106)" points="18.3,153.24 1738.29,-339.82 1838.83,10.91 118.83,503.97 "/>
    <polygon class="fil3" style="mask:url(#id108)" points="2251.29,303.57 531.29,796.62 430.76,445.9 2150.75,-47.16 "/>
   </g>
  </g>
  <g style="clip-path:url(#id110)">
   <image x="66.41" y="50.62" width="345.79" height="346.15" xlink:href="logo_Images\logo_ImgID1.png"/>
  </g>
  <g id="_2583495343840">
   <path class="fil4" d="M242.22 328.82c19.49,-5.46 29.92,-10.52 51.73,0.46 5.54,2.79 10.25,5.54 16.09,7.71 3.35,1.25 2.71,0.76 3.76,4.34 2.23,7.61 6.28,17.55 7.59,24.99 -21.59,-2.69 -39.94,-21.03 -61.52,-15.21 -5.73,1.54 -14.89,5.8 -20.56,5.71 -11.78,-0.17 -21.33,-11.82 -43.52,-4.2 -12.25,4.21 -24.52,11.89 -38.2,13.75 0.54,-5.2 5.9,-19.68 7.69,-25.68 1.3,-4.35 1.77,-2.36 10.22,-6.63 3.83,-1.93 7.66,-4.05 11.56,-5.85 9,-4.15 17.32,-6.36 28.77,-4.9 6.45,0.82 14.19,3.02 20.11,5.32 3.06,1.18 3.11,1.68 6.27,0.18zm-5.19 -278.2l1.39 0c15.38,0.24 32.74,6.92 45.56,13.35 2.1,1.05 3.92,1.97 6.19,3.09l40.58 25.01 41.57 33.89c5.54,5.55 8.69,8.54 13.7,14.75 1.41,1.74 2.8,3.28 4.22,5.07 8.1,10.17 8.94,11.93 15.48,21.68 1.36,2.03 6.5,9.73 6.5,12.08 0,12.06 -0.37,17.26 -1.64,29.14 -0.8,7.55 -1.39,14.03 -2.59,21.22 -1.15,6.9 -2.25,13.66 -3.65,20.74 -1.37,6.92 -2.88,12.63 -4.54,19.27 -5.5,22.06 -21.71,65.49 -34.45,85.73 -6.64,10.54 -13.13,18.64 -24.49,23.11 -17.69,6.97 -38.39,11.91 -57.41,14.55 -13.87,1.92 -29.12,3.45 -44.71,3.45l-40.44 -3.08c-11.92,-1.57 -24.84,-3.91 -35.9,-7.04 -5.91,-1.68 -10.89,-3.22 -16.42,-5.06 -4.76,-1.58 -11.35,-3.77 -15.17,-6.31 -9.35,-6.22 -18.11,-20.56 -23.2,-30.79 -1.24,-2.49 -2.34,-4.71 -3.67,-7.36 -4.78,-9.53 -9.06,-20.01 -12.9,-30.06 -2.13,-5.55 -3.79,-10.07 -5.61,-15.88 -8.75,-27.93 -11.42,-41.09 -15.7,-70.24 -0.76,-5.15 -2.94,-28.54 -3.3,-37.46l0 -3.16c0.86,-6.21 16.51,-27.13 20.89,-32.73 5.73,-7.34 13.68,-16.24 20.16,-22.8 17.88,-18.1 67.15,-53.26 96.46,-64.9 8.16,-3.24 24.07,-9.06 33.12,-9.29zm123.99 124.77l-1.79 -3.33c1.65,-1.46 15.05,-9.01 17,-9.38l1.68 2.92c-1.02,1.21 -1.91,1.64 -3.73,2.61 -3.55,1.9 -9.93,5.93 -13.16,7.18zm-252.3 -15.13l13.81 7.75 -1.69 3.49 -14.21 -7.66c-1.12,2.01 -1.56,3.64 -3.1,4.79l-2.53 -1.15c0.7,-2.74 6.15,-12.54 7.86,-13.95l2.33 1.49 -2.46 5.24zm252.51 -0.43c3.36,-1.63 7.28,-5.41 10.33,-6.4l1.61 2.84c-1.09,1.37 -14.26,10.36 -16.23,11.13 -2.2,-5.08 -2.49,-2.15 0.15,-8.18 1.11,-2.54 2.64,-5.4 3.36,-8 -3.23,1.64 -6.78,5.02 -9.76,6.15l-1.95 -2.75c1.42,-1.49 13.97,-10.17 15.88,-10.98 3.14,2.86 1.98,4.04 0.26,7.7 -1.33,2.83 -2.76,5.73 -3.65,8.48zm-242.18 -20.94c0.74,-1.42 1.11,-1.62 1.73,-3.04 2.74,1.04 7.22,4.95 9.74,6.81 3.35,2.48 6.25,5.32 2.56,10.69 -2.61,3.8 -5.92,5.97 -11.04,2.44 -2.96,-2.05 -7.06,-5.62 -9.87,-6.98 0.78,-1.84 0.87,-2.28 2.39,-3.4 5.61,2.79 11.88,11.2 15.27,6.41 2.56,-3.61 -1.4,-5.71 -3.52,-7.26 -1.62,-1.18 -2.06,-1.5 -3.7,-2.68l-3.55 -2.99zm123.17 189.92c-6.1,0.98 -7.09,-0.84 -14.09,-6.26 -3.72,-2.88 -7.86,-6.48 -14.36,-6.45 -27.7,0.15 -63,30.27 -82.78,-9.57 -4.72,-9.51 -8.85,-5.48 -11.63,-19.15 -1.44,-7.06 -5.75,-2.99 -8.35,-12.57 -0.7,-2.58 -0.42,-7.62 -1.2,-9.27 -0.64,-1.37 -2.38,-2.5 -3.84,-6.55 -1,-2.79 -1.38,-5.89 -1.07,-9.09 0.53,-5.64 0.41,-3.39 -1.62,-7.95 -8.96,-20.08 3.58,-40.92 15.68,-56.31 1.47,-1.87 1.13,-2.07 2.6,-1.59 2.48,1.23 0.28,2.8 -1.63,8.41 -3.18,9.35 -6.27,22.82 -0.88,31.36 13.56,21.53 59.85,-23.36 75.18,-2.66 9.86,13.3 -7.11,30.6 8.42,38.34 1.24,-5.44 1.6,-11.3 2.88,-16.82 1.23,-5.32 4.36,-10.17 3.12,-15.58 -4.88,-21.37 -9.06,-44.19 -13.74,-65.89 -2.98,-13.82 -2.37,-21.07 -17.28,-22.87 1.6,-3.38 6.17,-7.43 9.31,-9.51 15.29,-10.14 15.18,3.09 27.09,-10.03 3.04,-3.35 5.72,-7.33 12.06,-4.95 2.84,-2.71 6.17,-3.51 8.33,-5.96 3.45,-3.91 6.1,-4.37 9.84,-0.12 1.7,1.92 1.42,1.54 4.07,2.88 1.16,0.59 4.41,2.74 4.57,2.78 2.5,0.61 3.47,-3.4 9.89,3.08 2.07,2.09 5.17,5.59 7.32,7.19 5.67,4.22 15.79,-5.27 31.19,13.97 -6.98,6.01 -11.17,-6.18 -17.13,22.9 -2.27,11.07 -4.62,22.15 -6.88,33.13 -2.29,11.16 -4.51,22.15 -6.93,33.22 -1.27,5.8 1.41,8.96 2.88,15.02 1.04,4.29 2,14.5 3.18,17.34 2.44,-0.81 5.23,-3.63 6.23,-6.18 1.31,-3.36 0.48,-7.09 -0.13,-10.53 -1.3,-7.31 -1.68,-15.64 2.02,-21.22 13.96,-21.03 62,23.34 75.01,3.06 7.94,-12.38 0.12,-28.4 -3.45,-39.58l2.03 -1.3c4.31,3.83 13.25,18.66 15.91,24.32 11.47,24.51 -0.99,32.51 -0.07,41.35 0.98,9.38 -1.81,10.93 -4.54,15.87 -1.82,3.29 0.5,9.98 -4.7,15.63 -2.09,2.28 -4.12,1.99 -4.96,5.55 -3.81,16.06 -7.93,11.77 -11.19,18.96 -1.1,2.42 -2.12,4.35 -3.46,6.4 -2.58,3.91 -6.31,8.24 -9.76,10.55 -25.95,17.39 -59.4,-17.21 -81.44,-1.95 -4.25,2.94 -7.35,5.9 -11.71,8.59zm105.15 -177.08c-0.28,-0.16 -0.44,-0.44 -0.49,-0.34l-1.18 -1.13c-0.28,-0.3 -0.81,-0.98 -1.27,-1.43l2.25 -4.69c-1.86,-1.84 -2.95,-3.38 -4.7,-5.34l-4.62 1.24c-0.8,-1.37 -1.6,-2.04 -2.42,-3.55l19.88 -6.4 2.43 3.53 -9.89 18.12zm-213.39 -25.69l11.62 10.88 -2.43 2.9 -11.95 -10.58c-1.45,1.26 -2.52,3 -4.67,3.97 -0.77,-1.41 -0.42,-1 -1.56,-1.87 0.87,-2.22 7.69,-9.07 9.87,-11.62l2.6 2 -3.48 4.33zm203.66 -3.68l8.34 -2.23 2.95 3.03c-6.91,4.33 -8.77,-1.12 -17.97,9.34 -1.62,-0.83 -2.24,-1.39 -3.04,-3.12 6.41,-4.48 6.64,-9.43 7.74,-18.47l3.52 2.95 -1.55 8.5zm-13.39 3.34c-1.68,-0.9 -2.26,-1.18 -3.56,-2.5l1.04 -4.8c-2.04,-1.25 -3.69,-2.85 -5.85,-4.16l-4 2.26 -3.1 -2.59c1.5,-1.43 15.74,-10.38 17.54,-10.89l2.97 2.11c-0.02,4.15 -4.06,15.84 -5.05,20.58zm-31.92 -21.09l8.84 -17.1c21.07,6.95 8.39,23.28 0.96,22.17 -2.4,-0.36 -8.31,-3.61 -9.8,-5.07zm-127.91 -9.81l7.82 18.45 -3.09 2.54c-3.92,-1.59 -6.97,-6.15 -11.18,-8.06l4.77 12.54 -3.01 2.79c-2.1,-0.91 -14.11,-11.03 -15.51,-12.63l1.1 -1.14c0.85,-0.76 0.99,-0.8 1.73,-1.32 3.57,1.97 6.08,5.36 9.75,7.75l-4.42 -11.66 3.29 -2.85c2.13,0.92 8.27,6.07 10.35,7.78l-4.81 -11.31c0.81,-1.4 1.54,-2.08 3.21,-2.88zm91.16 -1.08l-4.12 -0.32c0.33,-1.98 8.24,-16.1 9.88,-18.44l3.96 0.26c1.46,3.2 4.36,16.38 5.18,20.64 -5.41,-0.02 -4.22,-0.34 -5.44,-4.83l-7.16 -1.28 -2.3 3.97zm-74.64 -7l3.2 -1.76c1.86,1.74 4.13,8.07 5.36,10.84 2.61,5.88 0.64,8.55 -3.61,10.54 -5.7,2.68 -8.09,0.55 -10.29,-3.59 -1.64,-3.07 -4.07,-8.14 -5.11,-11.28l3.83 -1.7c0.96,3.46 4.54,11.39 6.59,13.42 11.23,2.35 1.5,-12.38 0.03,-16.47zm107.06 15.52c-6.5,-1.53 -3.36,-2.19 -7.27,-14.76 -1.06,1.82 -3.2,8.63 -3.66,11.04l-3.68 -0.89c0.27,-2.45 5.04,-17.18 6,-18.94 5.58,1.57 3.39,1.37 6.97,15.02l3.92 -11.36 3.47 0.99 -5.75 18.9zm-51.08 -9.85l-4.24 0.15 0.27 -19.76 4.34 -0.09 -0.32 7.69 7.44 0.11 0.17 -7.58 3.75 0.06c0.71,2.92 0.23,16.14 -0.13,19.65l-3.89 0.1 -0.04 -8.54 -7.32 -0.15 -0.03 8.35zm-45.5 -10.42c0.83,-0.55 15.97,-8.25 16.98,1.29 0.34,3.19 -1.45,4.3 -2.74,5.69 3.25,1.3 5.77,3.99 8.05,5.79 -5.91,5.57 -7.2,-4.48 -14.63,-3.42l2.07 8.14 -3.61 1.02c-1.26,-1.73 -5.65,-15.94 -6.12,-18.51zm23.03 -6.74l3.38 -0.37c1.25,2.3 3.17,16.63 2.75,19.63l-3.79 0.38c-0.55,-4.05 -2.77,-16.62 -2.34,-19.63z"/>
   <path class="fil5" d="M229.88 171.21l-2.19 0.04c-0.85,-2.5 -1.34,-23.09 -1.55,-27.4 -0.22,-4.54 -0.45,-25.13 -1.94,-27.6 -3.09,-2.93 -10.13,6.19 -12.49,8.41 -1.64,1.54 -2.71,1.66 -4.1,3.2 0.86,8.11 2.46,16.96 3.69,25.09l3.21 25.09c-0.03,0.1 -0.09,0.3 -0.16,0.43 -2.26,-0.04 -1.74,1.89 -2.65,-4.93 -0.3,-2.26 -0.63,-4.32 -0.97,-6.58 -0.67,-4.49 -1.3,-8.78 -1.96,-13.11 -0.83,-5.44 -2.5,-22.56 -4.29,-26.18 -9.55,-2.47 -18.24,4.31 -21.95,8.31 2.8,2.36 5.09,1 8.89,5.53 2.21,2.64 3.34,6.57 4.27,10.79 2.49,11.34 14.5,72.13 15.75,74.02 7.7,-10.3 10.66,-11.55 18.67,-20.06 -1.34,-5.76 -6.36,-10.31 -0.64,-23.21 2.79,-6.3 6.76,-12.81 9.89,-19.07 0.91,1.04 9.1,16.65 10.04,18.81 5.8,13.31 1,17.24 -0.75,23.54 4.99,4.7 10.33,9.47 14.82,14.66 1.66,1.92 2.66,3.86 4.18,5.49 2.46,-8.3 12.65,-60.15 15.43,-73.36 0.97,-4.63 1.58,-7.59 4.08,-11.05 1.1,-1.51 1.84,-2.51 3.88,-3.67 1.51,-0.86 4.05,-1.44 5.17,-2.43 -4.79,-5.13 -11.16,-9.81 -21.82,-8.4 -2.48,6.9 -5.64,41.37 -7.5,48.91 -0.77,3.14 0.47,1.77 -2.06,2.01 -0.96,-1.23 -0.28,0.39 -0.58,-1.39l7.06 -49.86c-5.09,-1.73 -15.96,-17.91 -17.35,-8.68 -0.11,0.7 -0.1,2.64 -0.13,3.47l-2.04 43.11c-0.16,4.08 0.45,6.14 -1.47,6.15 -1.89,0.02 -1.54,-0.53 -1.21,-5.68l2.31 -49.55c-4.59,-4.02 -4.83,-2.66 -7.2,-4.74 -1.93,-1.7 -3.64,-5.81 -7,-2.42 -11.9,12.03 -10.33,-4.91 -8.25,38.72 0.3,6.29 1.52,17.86 0.9,23.59z"/>
   <path class="fil5" d="M238.09 225.43c2.77,-3.44 4.4,5.51 5.23,7.6 4.09,10.29 8.75,16.23 13.51,26.57 6.59,14.33 4.05,34.32 -15.62,29.54 -3.86,-0.94 -6.95,1.83 -12.2,0.64 -11.36,-2.57 -11.88,-17.07 -7.8,-27.88 3.55,-9.41 9.45,-17.17 13.54,-26.52 0.47,-1.07 3.29,-9.86 3.36,-9.95zm1.21 -7.47c-1.87,-1.58 -3.23,-3.93 -5.25,-5.41 -0.91,24.49 -16.95,31.59 -26,44.34 -1.27,1.79 -2.29,5.03 -3.56,6.76 -21.62,-10.01 -4.53,-23.15 -11.33,-39.07 -2.11,-4.94 -6.11,-6.31 -12.82,-6.45 2.88,6.15 5.42,7.28 5.01,16.62 -0.73,16.47 -13.47,36.17 -6.83,52.69 5.87,14.63 22.86,15.67 38.24,24.44l13.54 8.51c-0.42,-5.94 0.74,-8.97 3.13,-13.72 4.1,-8.17 3.45,-10.15 7.16,-10.24 1.42,2.16 3.81,7.87 5.22,10.77 2.39,4.9 3.27,7.26 2.82,13.42 3.02,-1.29 10.6,-8.47 26.76,-14.92 11.43,-4.57 20.31,-7.69 24.75,-17.61 5.02,-11.23 0.27,-24.73 -2.79,-35.38 -1.57,-5.47 -3.34,-11.24 -3.72,-17.37 -0.42,-6.96 0.84,-10.3 4.01,-15.4l0.99 -1.75c-24.79,-0.21 -8.64,27.38 -14.07,37.47 -1.78,3.3 -6.56,6.74 -10.53,8.06 -1.63,-7.8 -8.51,-12.91 -12.44,-17.02 -1.87,-1.96 -3.08,-3.56 -4.9,-5.56 -7.63,-8.33 -10.54,-14.36 -11.85,-28.83 -0.43,0.63 -1.87,2.37 -2.36,2.95l-3.17 2.71z"/>
   <path class="fil5" d="M345.4 273.57c-1.56,1.06 -1.24,1 -3.11,0.38 -0.75,-3.67 -0.03,-1.99 0.58,-2.59 15.96,-1.35 30.44,-4.87 28.38,-23.08 -1.89,-0.19 -13.95,7.73 -21.67,7.22 -1.41,0.91 -0.62,0.78 -2.77,0.53l-0.31 -2.4 2.16 -0.57c7.97,-0.14 21.93,-5.35 24.9,-12.88 6.88,-17.45 -1.87,-34.58 -11.12,-46.52 0.82,7.11 5.75,16.54 1.26,28.52 -9.16,24.44 -50.33,-2.94 -60.2,-3.41 -3.13,-0.15 -6,6.18 -6.74,9.6 -3.67,16.89 12.46,37.59 7.25,56.62 -6,21.95 -32.4,21.48 -38.54,28.49 23.29,0.85 50.34,19.06 68.36,6.58 4.37,-3.03 9.83,-9.5 12.07,-15.6 -3.83,0.75 -7.28,2.03 -11.57,2.73 -2.12,0.34 -9.85,1.35 -12.03,0.88 -2.01,-0.42 -0.56,0.23 -1.65,-0.75 0.43,-2.82 1.73,-1.82 5.08,-1.89 5.63,-0.11 13.42,-1.61 18.51,-3.41 7.52,-2.66 11.5,-7.39 12.94,-16.35 -4.35,1.16 -13.29,4.28 -17.38,3.56 -1.62,-0.28 -0.28,0.25 -1.31,-0.5 0.17,-3.35 0.53,-1.5 8.66,-2.94 3.49,-0.62 6.4,-1.53 9.31,-2.9 6.95,-3.26 9.33,-5.35 9.62,-14.74 -7.16,2.36 -11.37,5.37 -20.69,5.41z"/>
   <path class="fil5" d="M132.19 254.47c-0.51,1.88 1.17,2.24 -5.7,0.86 -4.99,-1 -8.62,-2.25 -12.99,-4.43 -1.75,-0.87 -3.96,-2.44 -5.76,-2.89 -2.79,24.55 22.53,20.27 28.9,23.89 -0.22,3.28 -1.39,2.14 -5.04,1.63 -7.93,-1.1 -11.62,-1.88 -18.58,-5.54 -1.05,13.97 12.72,17.42 23.59,18.44 3.17,0.3 3.81,-0.31 3.86,2.31 -2.89,2.41 -15.23,-2.14 -18.66,-2.97 2.03,13.9 11.57,16.98 23.78,18.9 5.6,0.88 5.27,0.51 9.64,0.75 3.43,0.19 2.14,-0.51 3.03,1.32 -0.79,2.02 1.68,0.98 -2.42,1.48 -0.39,0.04 -3.01,-0.12 -3.57,-0.16 -9.24,-0.65 -10.8,-1.63 -19.18,-3.67 1.95,5.79 7.82,12.77 11.83,15.53 18.43,12.65 43.07,-4.74 68.67,-6.48 -9.82,-7.68 -32.96,-7.78 -38.58,-28.25 -5.33,-19.42 11.06,-40.15 7.13,-57.13 -3.2,-13.86 -10.18,-8.57 -19.37,-4.91 -13.23,5.27 -41.01,18.22 -47.63,-1.21 -3.79,-11.1 -0.54,-18.33 1.52,-28.35 -9.96,11.79 -23.53,42.21 -3.88,53.97 2.7,1.62 5.71,2.83 8.95,3.83 4.65,1.44 5.21,1.09 8.07,1.77 3.01,0.71 1.41,-0.26 2.41,1.33z"/>
   <path class="fil6" d="M245.68 314.31c3.66,15.93 -16.25,15.48 -12.36,-0.21 0.86,-3.45 4.1,-10.36 5.98,-13.21l6.37 13.42zm22.93 -64.2c-1.57,-1.65 -2.63,-2.87 -4.18,-4.53 -9.46,-10.06 -18.01,-19.02 -16.61,-35.97 2.82,1.29 6.21,5.68 9.19,8.54 2.95,2.82 5.49,5.37 7.97,9.44 4.1,6.71 6.99,17.87 7.76,26.81 -0.86,-0.69 -2.99,-3.09 -4.13,-4.3zm-62.29 4.3c0.05,-8.25 4.16,-20.9 7.75,-26.94 2.75,-4.63 13.12,-15.37 17.12,-17.9 0.88,15.8 -6.1,26.15 -16.58,35.86 -3,2.78 -5.3,5.77 -8.28,8.99zm36.16 -39.16c0.49,-0.58 1.93,-2.33 2.36,-2.95 1.31,14.47 4.22,20.5 11.85,28.83 1.83,2 3.03,3.59 4.9,5.56 3.92,4.12 10.8,9.22 12.44,17.02 3.98,-1.32 8.76,-4.76 10.53,-8.06 5.44,-10.09 -10.72,-37.68 14.07,-37.47l-0.99 1.75c-3.17,5.1 -4.44,8.44 -4.01,15.4 0.37,6.14 2.15,11.91 3.72,17.37 3.06,10.65 7.81,24.15 2.79,35.38 -4.44,9.92 -13.32,13.04 -24.75,17.61 -16.16,6.45 -23.74,13.63 -26.76,14.92 0.45,-6.15 -0.43,-8.51 -2.82,-13.42 -1.41,-2.9 -3.8,-8.61 -5.22,-10.77 -3.71,0.08 -3.06,2.07 -7.16,10.24 -2.38,4.75 -3.54,7.78 -3.13,13.72l-13.54 -8.51c-15.37,-8.77 -32.36,-9.81 -38.24,-24.44 -6.63,-16.52 6.11,-36.22 6.83,-52.69 0.41,-9.34 -2.13,-10.46 -5.01,-16.62 6.71,0.14 10.71,1.51 12.82,6.45 6.79,15.92 -10.29,29.05 11.33,39.07 1.27,-1.73 2.29,-4.96 3.56,-6.76 9.04,-12.75 25.09,-19.85 26,-44.34 2.02,1.48 3.38,3.83 5.25,5.41l3.17 -2.71zm-3.3 -0.91c-17.92,-20.81 -6.44,-29.98 -0.01,-44.17l0.9 1.03c0.08,0.11 0.18,0.25 0.26,0.36 0.01,0.01 0.59,1.02 0.64,1.12 3.24,5.8 7.88,13.09 8.41,19.63 0.63,7.89 -6.23,19.52 -10.2,22.03zm109.49 38.73c-2.11,1.86 -1.45,-0.81 -1.36,2.69l2.28 -0.25c7.72,0.51 19.78,-7.41 21.67,-7.22 2.06,18.2 -12.43,21.73 -28.38,23.08l-0.18 2.53 2.7 -0.32c9.32,-0.04 13.53,-3.05 20.69,-5.41 -0.28,9.39 -2.67,11.48 -9.62,14.74 -2.91,1.37 -5.82,2.28 -9.31,2.9 -8.12,1.44 -8.49,-0.41 -8.66,2.94 1.03,0.75 -0.31,0.21 1.31,0.5 4.09,0.72 13.02,-2.4 17.38,-3.56 -1.44,8.96 -5.41,13.69 -12.94,16.35 -5.1,1.8 -12.88,3.3 -18.51,3.41 -3.35,0.07 -4.65,-0.93 -5.08,1.89 1.09,0.98 -0.36,0.33 1.65,0.75 2.18,0.46 9.91,-0.54 12.03,-0.88 4.29,-0.7 7.74,-1.98 11.57,-2.73 -2.25,6.11 -7.7,12.58 -12.07,15.6 -18.02,12.48 -45.07,-5.72 -68.36,-6.58 6.14,-7.02 32.54,-6.55 38.54,-28.49 5.2,-19.03 -10.92,-39.73 -7.25,-56.62 0.74,-3.42 3.61,-9.74 6.74,-9.6 9.86,0.47 51.04,27.85 60.2,3.41 4.49,-11.98 -0.44,-21.41 -1.26,-28.52 9.24,11.94 17.99,29.07 11.12,46.52 -2.97,7.52 -16.93,12.74 -24.9,12.88zm-216.47 1.41c-1,-1.59 0.6,-0.61 -2.41,-1.33 -2.86,-0.68 -3.41,-0.33 -8.07,-1.77 -3.23,-0.99 -6.24,-2.21 -8.95,-3.83 -19.65,-11.76 -6.07,-42.18 3.88,-53.97 -2.06,10.02 -5.3,17.25 -1.52,28.35 6.62,19.43 34.39,6.48 47.63,1.21 9.2,-3.67 16.17,-8.95 19.37,4.91 3.92,16.98 -12.47,37.71 -7.13,57.13 5.62,20.46 28.77,20.57 38.58,28.25 -25.61,1.75 -50.25,19.13 -68.67,6.48 -4.01,-2.75 -9.88,-9.73 -11.83,-15.53 8.37,2.04 9.94,3.02 19.18,3.67 0.56,0.04 3.18,0.2 3.57,0.16 4.1,-0.49 1.63,0.54 2.42,-1.48 -0.89,-1.83 0.4,-1.13 -3.03,-1.32 -4.37,-0.24 -4.04,0.13 -9.64,-0.75 -12.22,-1.93 -21.75,-5.01 -23.78,-18.9 3.42,0.83 15.77,5.38 18.66,2.97 -0.04,-2.63 -0.68,-2.02 -3.86,-2.31 -10.86,-1.02 -24.64,-4.48 -23.59,-18.44 6.96,3.66 10.64,4.45 18.58,5.54 3.65,0.5 4.81,1.65 5.04,-1.63 -6.37,-3.62 -31.69,0.66 -28.9,-23.89 1.81,0.45 4.02,2.02 5.76,2.89 4.37,2.19 7.99,3.43 12.99,4.43 6.88,1.38 5.19,1.02 5.7,-0.86zm97.7 -83.26c0.61,-5.72 -0.6,-17.3 -0.9,-23.59 -2.08,-43.63 -3.65,-26.69 8.25,-38.72 3.35,-3.39 5.07,0.72 7,2.42 2.37,2.08 2.6,0.72 7.2,4.74l-2.31 49.55c-0.32,5.16 -0.68,5.7 1.21,5.68 1.92,-0.02 1.31,-2.07 1.47,-6.15l2.04 -43.11c0.03,-0.83 0.03,-2.77 0.13,-3.47 1.39,-9.24 12.26,6.95 17.35,8.68l-7.06 49.86c0.3,1.79 -0.38,0.17 0.58,1.39 2.53,-0.23 1.29,1.13 2.06,-2.01 1.86,-7.54 5.02,-42.01 7.5,-48.91 10.67,-1.41 17.03,3.27 21.82,8.4 -1.12,0.99 -3.66,1.57 -5.17,2.43 -2.04,1.15 -2.78,2.16 -3.88,3.67 -2.51,3.45 -3.11,6.42 -4.08,11.05 -2.78,13.21 -12.97,65.06 -15.43,73.36 -1.53,-1.63 -2.52,-3.57 -4.18,-5.49 -4.49,-5.19 -9.82,-9.96 -14.82,-14.66 1.75,-6.3 6.55,-10.23 0.75,-23.54 -0.94,-2.15 -9.13,-17.76 -10.04,-18.81 -3.13,6.26 -7.1,12.77 -9.89,19.07 -5.71,12.9 -0.69,17.44 0.64,23.21 -8,8.51 -10.97,9.76 -18.67,20.06 -1.25,-1.89 -13.26,-62.69 -15.75,-74.02 -0.93,-4.22 -2.06,-8.15 -4.27,-10.79 -3.8,-4.53 -6.08,-3.17 -8.89,-5.53 3.71,-4 12.4,-10.78 21.95,-8.31 1.79,3.62 3.45,20.74 4.29,26.18 0.66,4.34 1.29,8.63 1.96,13.11 0.34,2.26 0.67,4.32 0.97,6.58 0.9,6.82 0.39,4.9 2.65,4.93 0.08,-0.13 0.14,-0.33 0.16,-0.43l-3.21 -25.09c-1.23,-8.13 -2.83,-16.98 -3.69,-25.09 1.39,-1.54 2.46,-1.66 4.1,-3.2 2.36,-2.22 9.4,-11.34 12.49,-8.41 1.48,2.47 1.72,23.07 1.94,27.6 0.2,4.31 0.69,24.9 1.55,27.4l2.19 -0.04zm12.34 157.6c4.36,-2.69 7.46,-5.65 11.71,-8.59 22.04,-15.26 55.5,19.34 81.44,1.95 3.45,-2.31 7.18,-6.64 9.76,-10.55 1.35,-2.04 2.37,-3.98 3.46,-6.4 3.26,-7.18 7.38,-2.9 11.19,-18.96 0.84,-3.55 2.87,-3.27 4.96,-5.55 5.2,-5.65 2.88,-12.34 4.7,-15.63 2.73,-4.94 5.52,-6.49 4.54,-15.87 -0.92,-8.84 11.53,-16.84 0.07,-41.35 -2.65,-5.66 -11.6,-20.49 -15.91,-24.32l-2.03 1.3c3.57,11.18 11.39,27.19 3.45,39.58 -13.01,20.28 -61.06,-24.09 -75.01,-3.06 -3.7,5.57 -3.32,13.91 -2.02,21.22 0.61,3.44 1.44,7.17 0.13,10.53 -0.99,2.55 -3.79,5.36 -6.23,6.18 -1.17,-2.84 -2.14,-13.05 -3.18,-17.34 -1.47,-6.06 -4.15,-9.22 -2.88,-15.02 2.42,-11.08 4.64,-22.06 6.93,-33.22 2.25,-10.97 4.61,-22.06 6.88,-33.13 5.95,-29.08 10.14,-16.89 17.13,-22.9 -15.4,-19.24 -25.51,-9.75 -31.19,-13.97 -2.15,-1.6 -5.24,-5.1 -7.32,-7.19 -6.43,-6.48 -7.39,-2.47 -9.89,-3.08 -0.16,-0.04 -3.41,-2.19 -4.57,-2.78 -2.66,-1.35 -2.38,-0.96 -4.07,-2.88 -3.75,-4.25 -6.4,-3.78 -9.84,0.12 -2.16,2.45 -5.49,3.25 -8.33,5.96 -6.35,-2.38 -9.02,1.6 -12.06,4.95 -11.91,13.12 -11.8,-0.11 -27.09,10.03 -3.14,2.09 -7.71,6.14 -9.31,9.51 14.91,1.8 14.3,9.05 17.28,22.87 4.69,21.7 8.87,44.52 13.74,65.89 1.24,5.41 -1.89,10.26 -3.12,15.58 -1.28,5.52 -1.64,11.37 -2.88,16.82 -15.53,-7.75 1.43,-25.04 -8.42,-38.34 -15.34,-20.7 -61.62,24.18 -75.18,2.66 -5.38,-8.55 -2.29,-22.01 0.88,-31.36 1.91,-5.61 4.1,-7.19 1.63,-8.41 -1.47,-0.48 -1.13,-0.28 -2.6,1.59 -12.1,15.39 -24.64,36.23 -15.68,56.31 2.03,4.56 2.15,2.31 1.62,7.95 -0.3,3.2 0.07,6.3 1.07,9.09 1.46,4.05 3.19,5.19 3.84,6.55 0.78,1.66 0.5,6.7 1.2,9.27 2.6,9.58 6.92,5.51 8.35,12.57 2.78,13.67 6.91,9.64 11.63,19.15 19.78,39.84 55.07,9.72 82.78,9.57 6.5,-0.03 10.64,3.56 14.36,6.45 6.99,5.42 7.98,7.24 14.09,6.26z"/>
   <path class="fil6" d="M240.81 353.98l0.09 -8.33c11.3,-5.37 31.88,-6.49 44.19,-2.88 6.83,2.01 12.4,4.91 18.57,7.57 9.32,4.02 11.05,3.02 12.34,6.78 0.71,2.06 1.16,3.67 1.55,5.61 -10.13,-1.1 -24.95,-10.17 -35.63,-13.28 -21.39,-6.22 -28.28,3.08 -41.11,4.53zm-79.4 8.85c0.98,-5.8 1.71,-7.74 4.94,-8.87 9.35,-3.27 18.19,-8.64 27.66,-11.22 15.12,-4.13 30.31,-1.9 44.1,2.79l0.04 8.39c-12.05,-1 -19.65,-10.65 -40.92,-4.49 -12.08,3.5 -23.43,11.11 -35.82,13.4zm79.52 -30.59c13.64,-3.45 24.47,-10.75 44.16,-3.96 6.06,2.09 12.15,5.49 17.74,8.37 7.2,3.71 8.33,0.85 11.26,14.87 -12.95,-2.84 -26.42,-16.71 -54.13,-13.14 -7.29,0.94 -12.51,3 -19.13,4.22l0.09 -10.35zm-76.03 19.31c0.38,-1.88 2.38,-9.08 3.13,-10.47 1.21,-2.26 6.24,-3.4 8.7,-4.64 5.61,-2.84 11.45,-6.24 17.72,-8.41 16.39,-5.69 29.39,-0.72 43.67,4.34l-0.11 10.25c-6.17,-1.17 -11.64,-3.26 -18.64,-4.18 -14.44,-1.89 -25.54,0.52 -38.34,6.37 -4.5,2.06 -11.35,5.63 -16.13,6.74zm77.33 -22.74c-3.16,1.5 -3.21,1 -6.27,-0.18 -5.92,-2.3 -13.66,-4.5 -20.11,-5.32 -11.45,-1.46 -19.77,0.75 -28.77,4.9 -3.9,1.8 -7.73,3.92 -11.56,5.85 -8.45,4.27 -8.93,2.28 -10.22,6.63 -1.79,6 -7.15,20.48 -7.69,25.68 13.68,-1.86 25.95,-9.54 38.2,-13.75 22.19,-7.63 31.74,4.03 43.52,4.2 5.67,0.08 14.83,-4.17 20.56,-5.71 21.58,-5.81 39.93,12.52 61.52,15.21 -1.31,-7.45 -5.36,-17.38 -7.59,-24.99 -1.05,-3.58 -0.41,-3.1 -3.76,-4.34 -5.84,-2.17 -10.55,-4.91 -16.09,-7.71 -21.81,-10.98 -32.24,-5.92 -51.73,-0.46z"/>
   <path class="fil7" d="M239.5 262.61c0.18,-5.31 -3.64,-15.01 -5.83,-19.01 -2.52,3.98 -5.36,9.25 -7.65,13.83 -2.19,4.38 -4.84,11.03 -4.7,16.8 0.45,18.74 17.07,11.87 17.59,11.81 2.23,-0.26 4.98,1.58 8.48,1.44 6.06,-0.25 9.43,-5.35 10.13,-11.21 1.2,-10.15 -6.33,-22.49 -11.28,-31.06 -2.57,-4.45 -4.36,-10.01 -6.8,-14.39 -3.97,8.65 -4.69,9.15 -0.61,18.33 3.19,7.18 4.6,12.02 2.28,20.44 -0.94,3.41 -1.77,6.95 -3.59,5.26 -0.95,-0.88 -0.97,1.37 -0.37,-2.04 0.61,-3.47 2.2,-5.37 2.36,-10.2z"/>
   <path class="fil5" d="M164.9 351.55c4.78,-1.11 11.63,-4.68 16.13,-6.74 12.8,-5.85 23.89,-8.26 38.34,-6.37 6.99,0.91 12.47,3.01 18.64,4.18l0.11 -10.25c-14.28,-5.06 -27.28,-10.03 -43.67,-4.34 -6.27,2.18 -12.1,5.57 -17.72,8.41 -2.46,1.24 -7.49,2.39 -8.7,4.64 -0.74,1.39 -2.74,8.59 -3.13,10.47z"/>
   <path class="fil5" d="M240.93 332.24l-0.09 10.35c6.62,-1.22 11.84,-3.28 19.13,-4.22 27.71,-3.57 41.17,10.3 54.13,13.14 -2.92,-14.02 -4.05,-11.16 -11.26,-14.87 -5.59,-2.88 -11.68,-6.28 -17.74,-8.37 -19.7,-6.79 -30.53,0.51 -44.16,3.96z"/>
   <path class="fil5" d="M240.81 353.98c12.83,-1.45 19.72,-10.74 41.11,-4.53 10.68,3.1 25.5,12.17 35.63,13.28 -0.39,-1.94 -0.84,-3.55 -1.55,-5.61 -1.3,-3.76 -3.02,-2.77 -12.34,-6.78 -6.17,-2.66 -11.75,-5.56 -18.57,-7.57 -12.31,-3.61 -32.89,-2.49 -44.19,2.88l-0.09 8.33z"/>
   <path class="fil5" d="M161.41 362.84c12.39,-2.29 23.74,-9.9 35.82,-13.4 21.27,-6.17 28.87,3.48 40.92,4.49l-0.04 -8.39c-13.79,-4.68 -28.98,-6.91 -44.1,-2.79 -9.47,2.58 -18.31,7.95 -27.66,11.22 -3.24,1.13 -3.96,3.07 -4.94,8.87z"/>
   <path class="fil5" d="M239.17 214.33c3.97,-2.51 10.83,-14.14 10.2,-22.03 -0.52,-6.54 -5.16,-13.83 -8.41,-19.63 -0.05,-0.1 -0.64,-1.11 -0.64,-1.12 -0.08,-0.11 -0.18,-0.25 -0.26,-0.36l-0.9 -1.03c-6.43,14.19 -17.9,23.36 0.01,44.17z"/>
   <path class="fil6" d="M239.43 230.82c2.44,4.37 4.23,9.94 6.8,14.39 4.96,8.57 12.49,20.9 11.28,31.06 -0.69,5.85 -4.07,10.96 -10.13,11.21 -3.49,0.14 -6.25,-1.7 -8.48,-1.44 -0.52,0.06 -17.14,6.93 -17.59,-11.81 -0.14,-5.77 2.52,-12.42 4.7,-16.8 2.29,-4.58 5.13,-9.84 7.65,-13.83 2.2,4 6.01,13.71 5.83,19.01 -0.16,4.83 -1.75,6.73 -2.36,10.2 -0.6,3.4 -0.58,1.15 0.37,2.04 1.82,1.69 2.65,-1.84 3.59,-5.26 2.31,-8.42 0.9,-13.26 -2.28,-20.44 -4.08,-9.18 -3.36,-9.68 0.61,-18.33zm-1.34 -5.39c-0.07,0.08 -2.89,8.88 -3.36,9.95 -4.09,9.35 -9.99,17.11 -13.54,26.52 -4.08,10.81 -3.56,25.31 7.8,27.88 5.25,1.19 8.34,-1.58 12.2,-0.64 19.68,4.79 22.21,-15.2 15.62,-29.54 -4.76,-10.34 -9.41,-16.28 -13.51,-26.57 -0.83,-2.09 -2.46,-11.04 -5.23,-7.6z"/>
   <path class="fil5" d="M206.32 254.41c2.99,-3.22 5.28,-6.21 8.28,-8.99 10.48,-9.71 17.47,-20.06 16.58,-35.86 -4,2.53 -14.36,13.27 -17.12,17.9 -3.59,6.04 -7.7,18.7 -7.75,26.94z"/>
   <path class="fil5" d="M272.74 254.41c-0.77,-8.95 -3.67,-20.11 -7.76,-26.81 -2.48,-4.07 -5.02,-6.62 -7.97,-9.44 -2.98,-2.86 -6.37,-7.25 -9.19,-8.54 -1.4,16.95 7.15,25.9 16.61,35.97 1.56,1.66 2.62,2.88 4.18,4.53 1.14,1.21 3.27,3.61 4.13,4.3z"/>
   <path class="fil8" d="M144.22 110.43c1.4,1.6 13.41,11.73 15.51,12.63l3.01 -2.79 -4.77 -12.54c4.21,1.92 7.25,6.47 11.18,8.06l3.09 -2.54 -7.82 -18.45c-1.68,0.79 -2.4,1.48 -3.21,2.88l4.81 11.31c-2.08,-1.71 -8.22,-6.86 -10.35,-7.78l-3.29 2.85 4.42 11.66c-3.66,-2.39 -6.17,-5.78 -9.75,-7.75 -0.74,0.51 -0.87,0.56 -1.73,1.32l-1.1 1.14z"/>
   <path class="fil5" d="M239.3 300.9c-1.89,2.85 -5.13,9.76 -5.98,13.21 -3.9,15.68 16.02,16.13 12.36,0.21l-6.37 -13.42z"/>
   <path class="fil8" d="M196.45 83.81c2.34,-0.79 7.03,-3.19 7.77,0.14 0.64,2.85 -4.17,3.83 -6.6,4.28l-1.17 -4.42zm-5.03 -1.84c0.47,2.58 4.86,16.78 6.12,18.51l3.61 -1.02 -2.07 -8.14c7.43,-1.06 8.72,8.99 14.63,3.42 -2.28,-1.8 -4.81,-4.49 -8.05,-5.79 1.29,-1.39 3.08,-2.5 2.74,-5.69 -1.01,-9.54 -16.15,-1.84 -16.98,-1.29z"/>
   <path class="fil8" d="M293.76 83.35l-3.47 -0.99 -3.92 11.36c-3.58,-13.65 -1.39,-13.46 -6.97,-15.02 -0.96,1.76 -5.73,16.49 -6,18.94l3.68 0.89c0.45,-2.41 2.59,-9.22 3.66,-11.04 3.91,12.57 0.77,13.23 7.27,14.76l5.75 -18.9z"/>
   <path class="fil8" d="M361.23 159.83c0.89,-2.75 2.32,-5.64 3.65,-8.48 1.72,-3.67 2.88,-4.85 -0.26,-7.7 -1.91,0.81 -14.46,9.5 -15.88,10.98l1.95 2.75c2.98,-1.13 6.53,-4.51 9.76,-6.15 -0.72,2.6 -2.25,5.46 -3.36,8 -2.64,6.02 -2.35,3.1 -0.15,8.18 1.97,-0.77 15.14,-9.77 16.23,-11.13l-1.61 -2.84c-3.06,0.98 -6.98,4.77 -10.33,6.4z"/>
   <path class="fil8" d="M303.21 92.59c8.32,2.94 5.9,9.88 0.49,13.34 -1.53,0.43 -4.6,-1.13 -6.2,-2.54l5.71 -10.79zm-10.87 12.04c1.49,1.46 7.4,4.71 9.8,5.07 7.43,1.11 20.1,-15.22 -0.96,-22.17l-8.84 17.1z"/>
   <path class="fil6" d="M236.96 84.04l7.32 0.15 0.04 8.54 3.89 -0.1c0.36,-3.51 0.84,-16.73 0.13,-19.65l-3.75 -0.06 -0.17 7.58 -7.44 -0.11 0.32 -7.69 -4.34 0.09 -0.27 19.76 4.24 -0.15 0.03 -8.35z"/>
   <path class="fil8" d="M259.63 86.47c0.47,-2.22 1.96,-4.5 3.2,-6.02l1.23 6.58 -4.43 -0.56zm-1.74 3.29l7.16 1.28c1.22,4.48 0.03,4.81 5.44,4.83 -0.82,-4.27 -3.73,-17.44 -5.18,-20.64l-3.96 -0.26c-1.64,2.34 -9.55,16.46 -9.88,18.44l4.12 0.32 2.3 -3.97z"/>
   <path class="fil8" d="M319.31 112.18c1.18,-1.61 3.36,-2.89 5.37,-3.65l-1.62 6.24c-2.04,-0.83 -2.31,-1.36 -3.75,-2.59zm4.95 13.54c0.98,-4.74 5.03,-16.43 5.05,-20.58l-2.97 -2.11c-1.8,0.51 -16.05,9.46 -17.54,10.89l3.1 2.59 4 -2.26c2.17,1.32 3.81,2.91 5.85,4.16l-1.04 4.8c1.3,1.32 1.88,1.61 3.56,2.5z"/>
   <path class="fil8" d="M345.63 137.72c1.41,-1.29 3.9,-1.97 6.26,-2.29l-3.33 5.54c-1.15,-1.08 -1.99,-2.03 -2.93,-3.25zm11.64 -4.1l-2.43 -3.53 -19.88 6.4c0.82,1.51 1.61,2.18 2.42,3.55l4.62 -1.24c1.75,1.97 2.84,3.51 4.7,5.34l-2.25 4.69c0.46,0.45 0.99,1.13 1.27,1.43l1.18 1.13c0.04,-0.1 0.21,0.18 0.49,0.34l9.89 -18.12z"/>
   <path class="fil8" d="M185.9 106.36c4.25,-2 6.22,-4.67 3.61,-10.54 -1.23,-2.77 -3.5,-9.11 -5.36,-10.84l-3.2 1.76c1.47,4.09 11.2,18.82 -0.03,16.47 -2.05,-2.02 -5.63,-9.95 -6.59,-13.42l-3.83 1.7c1.04,3.14 3.48,8.21 5.11,11.28 2.2,4.14 4.59,6.27 10.29,3.59z"/>
   <path class="fil8" d="M133.08 153.35c3.69,-5.37 0.79,-8.21 -2.56,-10.69 -2.51,-1.86 -6.99,-5.77 -9.74,-6.81 -0.61,1.43 -0.98,1.62 -1.73,3.04l3.55 2.99c1.64,1.18 2.08,1.5 3.7,2.68 2.12,1.55 6.08,3.65 3.52,7.26 -3.39,4.79 -9.66,-3.62 -15.27,-6.41 -1.52,1.12 -1.61,1.56 -2.39,3.4 2.81,1.36 6.91,4.93 9.87,6.98 5.11,3.53 8.42,1.36 11.04,-2.44z"/>
   <path class="fil8" d="M339.19 113.87l-3.52 -2.95c-1.11,9.04 -1.33,13.99 -7.74,18.47 0.8,1.73 1.43,2.28 3.04,3.12 9.2,-10.46 11.06,-5.02 17.97,-9.34l-2.95 -3.03 -8.34 2.23 1.55 -8.5z"/>
   <path class="fil8" d="M111.19 155.02l-2.33 -1.49c-1.72,1.41 -7.16,11.22 -7.86,13.95l2.53 1.15c1.54,-1.15 1.98,-2.78 3.1,-4.79l14.21 7.66 1.69 -3.49 -13.81 -7.75 2.46 -5.24z"/>
   <path class="fil8" d="M137.46 121.72l-2.6 -2c-2.18,2.55 -9,9.4 -9.87,11.62 1.14,0.87 0.79,0.46 1.56,1.87 2.14,-0.96 3.21,-2.71 4.67,-3.97l11.95 10.58 2.43 -2.9 -11.62 -10.88 3.48 -4.33z"/>
   <path class="fil4" d="M297.51 103.38c1.6,1.42 4.67,2.98 6.2,2.54 5.41,-3.46 7.83,-10.4 -0.49,-13.34l-5.71 10.79z"/>
   <path class="fil8" d="M220.58 94.49c0.42,-2.99 -1.5,-17.32 -2.75,-19.63l-3.38 0.37c-0.43,3.01 1.79,15.58 2.34,19.63l3.79 -0.38z"/>
   <path class="fil8" d="M361.02 175.39c3.23,-1.25 9.61,-5.28 13.16,-7.18 1.82,-0.97 2.7,-1.4 3.73,-2.61l-1.68 -2.92c-1.95,0.37 -15.34,7.92 -17,9.38l1.79 3.33z"/>
   <path class="fil9" d="M196.45 83.81l1.17 4.42c2.43,-0.45 7.24,-1.44 6.6,-4.28 -0.74,-3.32 -5.43,-0.92 -7.77,-0.14z"/>
   <path class="fil9" d="M319.31 112.18c1.44,1.23 1.71,1.76 3.75,2.59l1.62 -6.24c-2,0.76 -4.19,2.05 -5.37,3.65z"/>
   <path class="fil10" d="M259.63 86.47l4.43 0.56 -1.23 -6.58c-1.24,1.52 -2.73,3.81 -3.2,6.02z"/>
   <path class="fil11" d="M345.63 137.72c0.94,1.22 1.78,2.17 2.93,3.25l3.33 -5.54c-2.36,0.32 -4.86,1 -6.26,2.29z"/>
   <path class="fil12" d="M345.4 273.57l-2.7 0.32 0.18 -2.53c-0.61,0.6 -1.34,-1.08 -0.58,2.59 1.87,0.62 1.56,0.68 3.11,-0.38z"/>
   <path class="fil13" d="M349.58 255.51l-2.28 0.25c-0.09,-3.5 -0.75,-0.84 1.36,-2.69l-2.16 0.57 0.31 2.4c2.14,0.25 1.36,0.38 2.77,-0.53z"/>
  </g>
 </g>
</svg>
